<svg xmlns="http://www.w3.org/2000/svg" viewBox="0 0 100 100">
  <rect width="100" height="100" rx="22" fill="#16a34a"/>
  <g transform="translate(50,50) scale(3.2) translate(-12,-12)" stroke="#ffffff" stroke-width="2.2" stroke-linecap="round" stroke-linejoin="round" fill="none">
    <path d="M7 19H4.815a1.83 1.83 0 0 1-1.57-.881 1.785 1.785 0 0 1-.004-1.784L7.196 9.5"/>
    <path d="M11 19h8.203a1.83 1.83 0 0 0 1.556-.89 1.784 1.784 0 0 0 0-1.775l-1.226-2.12"/>
    <path d="m14 16-3 3 3 3"/>
    <path d="M8.293 13.596 7.196 9.5 3.1 10.598"/>
    <path d="m9.344 5.811 1.093-1.892A1.83 1.83 0 0 1 12.02 3a1.784 1.784 0 0 1 1.572.89l3.468 6.004"/>
    <path d="m18.186 12.7 1.096 4.096 4.096-1.098"/>
  </g>
</svg>
